<?xml version="1.0" encoding="UTF-8" standalone="no"?> <svg xmlns="http://www.w3.org/2000/svg" viewBox="0 0 32 32"><defs><style>.cls-1{fill:#1a1a1a;}</style></defs><title>Chat, communication, message</title><g id="_01" data-name="01"><path class="cls-1" d="M4,29a1,1,0,0,1-1-1V7A1,1,0,0,1,4,6H28a1,1,0,0,1,1,1V23a1,1,0,0,1-1,1H9.414L4.707,28.707A1,1,0,0,1,4,29ZM5,8V25.586l3.293-3.293A1,1,0,0,1,9,22H27V8Z"/><path class="cls-1" d="M20,13H12a1,1,0,0,1,0-2h8a1,1,0,0,1,0,2Z"/><path class="cls-1" d="M20,19H12a1,1,0,0,1,0-2h8a1,1,0,0,1,0,2Z"/></g></svg>